<?xml version="1.0" encoding="iso-8859-1"?>
<!-- Uploaded to: SVG Repo, www.svgrepo.com, Generator: SVG Repo Mixer Tools -->
<!DOCTYPE svg PUBLIC "-//W3C//DTD SVG 1.1//EN" "http://www.w3.org/Graphics/SVG/1.1/DTD/svg11.dtd">
<svg fill="#000000" version="1.1" id="Capa_1" xmlns="http://www.w3.org/2000/svg" xmlns:xlink="http://www.w3.org/1999/xlink" 
	 width="800px" height="800px" viewBox="0 0 77.066 77.067"
	 xml:space="preserve">
<g>
	<path d="M68.047,65.914v-4.32c0-2.862-1.834-5.276-4.381-6.19c1.963-3.984,4.961-7.142,5.621-7.808
		c7.008-4.563,7.775-19.203,7.775-25.328v-0.164l0.004-0.127l-0.262-6.525c0-3.669-0.429-6.495-4.859-7.869
		C55.223,1.432,35.728,6.257,30.06,7.916c-0.15,0.025-0.301,0.067-0.449,0.126c0.002-0.007,0.002-0.014,0.004-0.021
		c-0.072,0.042-0.137,0.095-0.207,0.14c-0.178,0.091-0.342,0.193-0.486,0.323c-2.18,1.558-3.613,4.093-3.613,6.968v7.1
		c-0.645,0.262-2.203,0.518-5.141-0.027l-0.301-0.031c-1.289-0.041-12.734-0.252-17.613,4.479C0.779,28.401,0,30.2,0,32.176
		c0,5.605,2.441,6.293,6.164,6.703c2.893,0.316,7.262,0.797,14.016,4.938c0.988,0.604,7.066,5.967,8.959,13.213
		c-1.141,1.186-1.85,2.789-1.85,4.565v4.32c0,3.646,2.955,6.604,6.602,6.604h27.552C65.09,72.516,68.047,69.559,68.047,65.914z
		 M22.16,40.389l0.002-0.004c-7.42-4.553-12.52-5.112-15.564-5.446c-2.637-0.289-2.637-0.289-2.637-2.766
		c0-0.916,0.334-1.664,1.049-2.359c3.072-2.98,11.432-3.441,14.592-3.367c3.99,0.715,6.865,0.371,8.549-1.029
		c1.215-1.012,1.652-2.65,1.119-3.898v-6.069c0-0.559,0.115-1.088,0.297-1.584c-0.164-0.571,0.807-1.354,1.748-1.631
		c5.402-1.582,24.235-6.27,39.819-0.158c0.396,0.154,0.803,0.182,1.191,0.117c0.512,0.678,0.518,1.697,0.518,3.336l0.263,6.563
		c-0.003,0.055-0.005,0.113-0.005,0.174c-0.002,8.871-1.602,19.333-6.09,22.082l-0.336,0.259c-0.26,0.25-4.738,4.606-7.168,10.383
		H33.89c-0.398,0-0.783,0.051-1.162,0.119C30.234,46.91,23.549,41.26,22.16,40.389z"/>
</g>
</svg>